<?xml version="1.0" encoding="UTF-8" standalone="no"?>
<svg width="449px" height="448px" viewBox="0 0 449 448" version="1.1" xmlns="http://www.w3.org/2000/svg" xmlns:xlink="http://www.w3.org/1999/xlink">
    <!-- Generator: Sketch 49.3 (51167) - http://www.bohemiancoding.com/sketch -->
    <title>linkedin</title>
    <desc>Created with Sketch.</desc>
    <defs></defs>
    <g id="Website" stroke="none" stroke-width="1" fill="none" fill-rule="evenodd">
        <g id="main" transform="translate(-109.000000, -1181.000000)" fill="#0077B5" fill-rule="nonzero">
            <g id="linkedin" transform="translate(109.000000, 1181.000000)">
                <path d="M100.3,448 L7.4,448 L7.4,148.9 L100.3,148.9 L100.3,448 Z M53.8,108.1 C24.1,108.1 0,83.5 0,53.8 C0,24.1 24.1,0 53.8,0 C83.5,0 107.6,24.1 107.6,53.8 C107.6,83.5 83.5,108.1 53.8,108.1 Z M448,448 L355.3,448 L355.3,302.4 C355.3,267.7 354.6,223.2 307,223.2 C258.7,223.2 251.3,260.9 251.3,299.9 L251.3,448 L158.5,448 L158.5,148.9 L247.6,148.9 L247.6,189.7 L248.9,189.7 C261.3,166.2 291.6,141.4 336.8,141.4 C430.8,141.4 448.1,203.3 448.1,283.7 L448.1,448 L448,448 Z" id="Shape"></path>
            </g>
        </g>
    </g>
</svg>