<?xml version="1.0" encoding="UTF-8" standalone="no"?>
<svg width="24px" height="24px" viewBox="0 0 24 24" version="1.1" xmlns="http://www.w3.org/2000/svg" xmlns:xlink="http://www.w3.org/1999/xlink">
    <!-- Generator: Sketch 43.2 (39069) - http://www.bohemiancoding.com/sketch -->
    <title>medium</title>
    <desc>Created with Sketch.</desc>
    <defs></defs>
    <g id="Page-1" stroke="none" stroke-width="1" fill="none" fill-rule="evenodd">
        <g id="Desktop-HD" transform="translate(-742.000000, -1953.000000)">
            <g id="Group-3" transform="translate(0.000000, 1901.000000)">
                <rect id="Rectangle" fill="#F2F2F2" x="0" y="0" width="1440" height="140"></rect>
                <g id="Group-2" transform="translate(616.000000, 20.000000)" fill-rule="nonzero">
                    <g id="Group" transform="translate(58.000000, 32.000000)">
                        <g id="medium" transform="translate(68.000000, 0.000000)">
                            <rect id="Rectangle-path" fill="#4A4A4A" x="0" y="0" width="24" height="24"></rect>
                            <path d="M5.72727142,8.02655451 C5.74730311,7.82863473 5.67182769,7.63301305 5.52403936,7.49980554 L4.01861668,5.68628409 L4.01861668,5.41538462 L8.6929541,5.41538462 L12.3059685,13.3391941 L15.4824105,5.41538462 L19.9384615,5.41538462 L19.9384615,5.68628409 L18.6513252,6.92038167 C18.5403599,7.00496587 18.4853154,7.14398599 18.50831,7.28158097 L18.50831,16.3491883 C18.4853154,16.4867833 18.5403599,16.6258033 18.6513252,16.7103876 L19.9083531,17.9444852 L19.9083531,18.2153846 L13.5855778,18.2153846 L13.5855778,17.9444852 L14.8877685,16.6802876 C15.0157294,16.5523628 15.0157294,16.514738 15.0157294,16.3190884 L15.0157294,8.98975264 L11.3951878,18.1852847 L10.9059255,18.1852847 L6.69074193,8.98975264 L6.69074193,15.1527156 C6.65559727,15.4118239 6.74165168,15.6726892 6.92408245,15.8600642 L8.61768297,17.9143852 L8.61768297,18.1852847 L3.81538462,18.1852847 L3.81538462,17.9143852 L5.50898513,15.8600642 C5.69008764,15.6723786 5.77112416,15.4097828 5.72727142,15.1527156 L5.72727142,8.02655451 Z" id="Shape" fill="#F2F2F2"></path>
                        </g>
                    </g>
                </g>
            </g>
        </g>
    </g>
</svg>