<?xml version="1.0" encoding="UTF-8" standalone="no"?>
<svg width="484px" height="384px" viewBox="0 0 484 384" version="1.1" xmlns="http://www.w3.org/2000/svg" xmlns:xlink="http://www.w3.org/1999/xlink">
    <!-- Generator: Sketch 49.3 (51167) - http://www.bohemiancoding.com/sketch -->
    <title>medium</title>
    <desc>Created with Sketch.</desc>
    <defs></defs>
    <g id="Website" stroke="none" stroke-width="1" fill="none" fill-rule="evenodd">
        <g id="main" transform="translate(-382.000000, -1388.000000)" fill="#1C1B1A" fill-rule="nonzero">
            <g id="medium" transform="translate(382.000000, 1388.000000)">
                <path d="M57.5,78.3 C58.1,72.4 55.8,66.5 51.4,62.5 L6.3,8.1 L6.3,0 L146.5,0 L254.9,237.7 L350.2,0 L483.9,0 L483.9,8.1 L445.3,45.1 C442,47.6 440.3,51.8 441,55.9 L441,327.9 C440.3,332 442,336.2 445.3,338.7 L483,375.7 L483,383.8 L293.3,383.8 L293.3,375.7 L332.4,337.8 C336.2,334 336.2,332.8 336.2,327 L336.2,107.2 L227.5,383.1 L212.8,383.1 L86.4,107.2 L86.4,292.1 C85.3,299.9 87.9,307.7 93.4,313.3 L144.2,374.9 L144.2,383 L0.2,383 L0.2,375 L51,313.3 C56.4,307.7 58.9,299.8 57.5,292.1 L57.5,78.3 Z" id="Shape"></path>
            </g>
        </g>
    </g>
</svg>