<?xml version="1.0" encoding="UTF-8" standalone="no"?>
<svg width="25px" height="20px" viewBox="0 0 25 20" version="1.1" xmlns="http://www.w3.org/2000/svg" xmlns:xlink="http://www.w3.org/1999/xlink">
    <!-- Generator: Sketch 43.2 (39069) - http://www.bohemiancoding.com/sketch -->
    <title>twitter</title>
    <desc>Created with Sketch.</desc>
    <defs></defs>
    <g id="Page-1" stroke="none" stroke-width="1" fill="none" fill-rule="evenodd">
        <g id="Desktop-HD" transform="translate(-708.000000, -1955.000000)">
            <g id="Group-3" transform="translate(0.000000, 1901.000000)">
                <rect id="Rectangle" fill="#F2F2F2" x="0" y="0" width="1440" height="140"></rect>
                <g id="Group-2" transform="translate(616.000000, 20.000000)" fill-rule="nonzero" fill="#4A4A4A">
                    <g id="Group" transform="translate(58.000000, 32.000000)">
                        <g id="twitter" transform="translate(34.000000, 2.000000)">
                            <path d="M7.73925484,20 C17.0261592,20 22.1048059,12.3062218 22.1048059,5.63444892 C22.1048059,5.41591846 22.1003549,5.19837896 22.0905527,4.98182216 C23.0763882,4.2691435 23.9332344,3.37977749 24.609066,2.36735132 C23.7044062,2.76946453 22.7308751,3.04016053 21.7096129,3.16222147 C22.7520155,2.53715154 23.5522946,1.54836792 23.9298486,0.369626389 C22.9543355,0.947939742 21.8740289,1.36826176 20.7237774,1.59519056 C19.8024365,0.613814332 18.4907418,0 17.0383314,0 C14.250113,0 11.989083,2.26111264 11.989083,5.04825747 C11.989083,5.44445798 12.0333787,5.82984056 12.1200047,6.19949998 C7.9237212,5.98835214 4.202766,3.97926426 1.71249492,0.924313712 C1.27888584,1.67045363 1.02885951,2.53717631 1.02885951,3.4619855 C1.02885951,5.21366445 1.92022396,6.76005046 3.27568588,7.66471022 C2.44732968,7.63911714 1.6691819,7.41172755 0.989056136,7.03324036 C0.988312919,7.05442369 0.988312919,7.07507602 0.988312919,7.09771605 C0.988312919,9.54289867 2.72867846,11.5844321 5.03892597,12.0470431 C4.6146649,12.1627042 4.16828901,12.2247214 3.7075773,12.2247214 C3.3827421,12.2247214 3.06626395,12.1927499 2.75865486,12.1336692 C3.40143812,14.1397759 5.26535929,15.5996185 7.47518998,15.6404128 C5.74712881,16.9948838 3.57024739,17.8016041 1.20434121,17.8016041 C0.797306253,17.8016041 0.395201298,17.7784521 0,17.7317137 C2.234522,19.1639746 4.88780526,19.9996804 7.73952736,19.9996804" id="Shape"></path>
                        </g>
                    </g>
                </g>
            </g>
        </g>
    </g>
</svg>